<?xml version="1.0" standalone="no"?>
<!DOCTYPE svg PUBLIC "-//W3C//DTD SVG 20010904//EN"
 "http://www.w3.org/TR/2001/REC-SVG-20010904/DTD/svg10.dtd">
<svg version="1.0" xmlns="http://www.w3.org/2000/svg"
 width="900.000000pt" height="408.000000pt" viewBox="0 0 900.000000 408.000000"
 preserveAspectRatio="xMidYMid meet">
<metadata>
Created by potrace 1.10, written by Peter Selinger 2001-2011
</metadata>
<g transform="translate(0.000000,408.000000) scale(0.100000,-0.100000)"
fill="#000000" stroke="none">
<path d="M0 2040 l0 -2040 4500 0 4500 0 0 2040 0 2040 -4500 0 -4500 0 0
-2040z m8663 1457 c113 -89 119 -226 13 -321 -80 -71 -193 -69 -275 3 -23 20
-41 43 -41 51 0 8 -7 24 -15 34 -39 51 0 177 73 234 64 51 180 51 245 -1z
m-7614 -11 c6 -8 18 -51 26 -97 8 -46 22 -120 30 -164 9 -44 23 -114 30 -155
8 -41 22 -111 30 -155 9 -44 23 -116 31 -160 17 -86 32 -170 58 -304 8 -46 18
-92 21 -102 11 -35 24 -19 30 39 4 31 11 71 16 87 4 17 18 75 29 130 12 55 27
127 35 160 7 33 20 96 29 140 9 44 21 94 26 110 4 17 11 46 15 65 3 19 12 62
19 95 8 33 21 96 30 140 10 44 24 104 33 133 l15 52 331 -2 332 -3 5 -1255 c3
-719 9 -1234 13 -1205 5 28 13 64 18 80 5 17 13 66 18 110 6 44 17 125 26 180
9 55 22 141 30 190 7 50 16 101 19 115 4 14 11 57 16 95 16 120 38 259 44 285
4 14 11 54 16 90 4 36 16 110 25 165 9 55 22 141 30 190 8 50 21 134 30 187
27 169 69 438 89 568 8 52 19 119 25 149 6 29 11 55 11 57 0 8 679 4 684 -4 6
-10 20 -91 42 -237 23 -152 41 -270 59 -380 8 -55 22 -143 30 -195 7 -52 21
-140 30 -195 8 -55 22 -143 30 -195 20 -123 43 -277 55 -365 5 -38 12 -81 16
-95 3 -14 12 -68 19 -120 8 -52 21 -140 30 -195 33 -210 65 -438 65 -475 0
-13 1 -13 10 0 6 9 10 462 10 1227 0 744 4 1214 9 1218 14 8 894 7 917 -1 56
-20 114 -50 159 -84 69 -51 165 -157 193 -214 13 -25 27 -48 33 -51 12 -8 11
52 -1 135 -21 139 -28 203 -23 216 4 11 55 14 274 14 l269 0 10 -26 c6 -14 17
-72 25 -128 9 -55 22 -141 30 -191 9 -49 22 -133 31 -185 8 -52 22 -133 29
-180 39 -240 47 -291 56 -355 5 -38 14 -86 19 -105 4 -19 11 -60 15 -90 3 -30
11 -80 16 -110 22 -125 25 -127 39 -19 8 69 20 141 56 349 8 47 21 123 29 170
7 47 21 128 30 180 9 52 22 131 30 175 7 44 18 107 24 140 6 33 18 103 26 155
22 130 37 200 46 206 4 2 344 4 754 4 552 1 751 -2 761 -11 21 -17 21 -541 0
-558 -10 -8 -80 -13 -223 -14 l-208 -2 0 -294 0 -293 195 1 c107 1 201 -2 208
-7 9 -7 12 -78 10 -323 l-3 -314 -203 -5 -203 -5 0 -264 c0 -145 2 -266 5
-268 3 -3 91 -5 196 -4 160 2 196 0 216 -14 l24 -15 0 -288 c0 -158 -4 -293
-8 -300 -7 -10 -113 -12 -498 -10 l-489 3 -5 1360 c-3 775 -9 1338 -13 1310
-5 -27 -13 -63 -17 -80 -5 -16 -14 -61 -19 -100 -10 -71 -32 -198 -56 -335 -8
-41 -21 -115 -29 -165 -9 -49 -22 -129 -31 -177 -27 -155 -45 -256 -61 -345
-8 -49 -22 -126 -30 -173 -8 -47 -21 -121 -29 -165 -8 -44 -21 -123 -30 -175
-10 -52 -23 -129 -30 -170 -7 -41 -20 -115 -29 -165 -15 -90 -33 -193 -62
-355 -9 -47 -21 -122 -28 -168 -8 -46 -18 -88 -23 -93 -5 -5 -133 -8 -313 -7
l-304 3 -8 30 c-4 17 -15 75 -24 130 -29 182 -43 269 -58 355 -19 113 -43 253
-62 370 -8 52 -21 131 -29 175 -7 44 -21 125 -30 180 -9 55 -22 136 -30 180
-38 229 -47 284 -52 333 -6 59 -20 76 -28 35 -30 -150 -64 -254 -125 -378 -51
-104 -72 -134 -154 -222 -36 -39 -46 -57 -41 -70 21 -49 367 -1081 368 -1098
2 -19 -5 -20 -265 -23 -249 -2 -268 -1 -277 16 -5 10 -67 171 -136 357 -70
187 -137 367 -150 400 -13 33 -28 79 -35 103 -6 23 -15 40 -20 37 -5 -3 -9
-195 -9 -443 0 -240 -1 -445 -1 -454 0 -17 -32 -18 -540 -18 l-539 0 -6 38
c-4 20 -10 51 -15 67 -5 17 -12 55 -15 85 -12 95 0 90 -216 90 -143 0 -191 -3
-193 -12 -26 -88 -70 -228 -77 -246 l-9 -22 -512 2 -513 3 -3 468 c-2 431 -9
541 -27 425 -7 -51 -47 -230 -75 -338 -5 -19 -19 -75 -30 -125 -11 -49 -25
-103 -29 -120 -5 -16 -19 -75 -31 -130 -12 -55 -28 -118 -35 -140 l-12 -40
-146 -3 c-145 -3 -147 -2 -151 20 -3 13 -12 52 -20 88 -16 70 -28 124 -52 235
-9 39 -22 97 -29 130 -30 131 -45 202 -55 255 -6 30 -15 69 -20 85 -4 17 -11
51 -15 78 -3 26 -10 45 -16 42 -5 -4 -9 -189 -9 -460 0 -441 -1 -455 -20 -465
-12 -7 -112 -9 -282 -8 l-263 3 -3 1485 c-1 817 0 1491 3 1498 7 19 678 18
694 -2z m7221 -13 c0 -16 1 -552 3 -1193 l2 -1165 210 -5 210 -5 0 -305 0
-305 -470 0 -470 0 -3 1490 c-1 820 0 1496 3 1503 3 9 65 12 260 12 l255 0 0
-27z"/>
<path d="M8500 3503 c-47 -9 -105 -67 -124 -125 -18 -53 -18 -54 2 -99 29 -63
76 -106 123 -114 89 -15 157 19 199 98 26 47 25 86 -1 137 -39 75 -121 118
-199 103z m120 -78 c24 -21 26 -67 5 -85 -16 -13 -21 -50 -7 -50 16 0 31 -47
19 -59 -19 -19 -32 -12 -65 34 -40 58 -62 59 -62 5 0 -38 -2 -40 -30 -40 l-30
0 0 100 c0 95 1 101 23 110 35 15 124 6 147 -15z"/>
<path d="M8514 3385 c-9 -24 10 -39 41 -31 18 5 25 12 23 24 -4 23 -56 29 -64
7z"/>
<path d="M4310 2931 c0 -6 0 -195 0 -421 0 -225 0 -415 0 -420 0 -7 14 -8 38
-4 144 26 239 163 258 370 16 177 -77 394 -195 454 -48 24 -101 35 -101 21z"/>
<path d="M2970 2185 c-14 -130 -22 -198 -34 -285 -8 -58 -20 -139 -26 -180 -6
-41 -16 -105 -22 -142 -6 -37 -11 -95 -12 -130 l-1 -63 115 0 115 0 -2 55 c0
30 -6 78 -12 105 -5 28 -17 95 -26 150 -9 55 -23 134 -30 175 -7 41 -21 125
-31 185 -15 97 -31 159 -34 130z"/>
</g>
</svg>
