<?xml version="1.0" standalone="no"?>
<!DOCTYPE svg PUBLIC "-//W3C//DTD SVG 20010904//EN"
 "http://www.w3.org/TR/2001/REC-SVG-20010904/DTD/svg10.dtd">
<svg version="1.0" xmlns="http://www.w3.org/2000/svg"
 width="300.000000pt" height="300.000000pt" viewBox="0 0 300.000000 300.000000"
 preserveAspectRatio="xMidYMid meet">
<metadata>
Created by potrace 1.10, written by Peter Selinger 2001-2011
</metadata>
<g transform="translate(0.000000,300.000000) scale(0.050000,-0.050000)"
fill="#000000" stroke="none">
<path d="M3265 5965 c-20 -20 -76 -123 -125 -230 l-89 -195 -134 0 c-865 0
-1813 -554 -2283 -1335 -573 -951 -517 -2217 135 -3081 133 -176 146 -87 -79
-561 -280 -591 -297 -563 352 -563 537 1 491 -13 585 174 l73 144 120 -59
c1518 -754 3423 134 3869 1802 319 1191 -247 2537 -1310 3115 l-136 74 -7 337
c-8 446 33 413 -518 413 -373 0 -422 -4 -453 -35z m696 -540 c0 -340 -3 -333
179 -425 1495 -755 1833 -2778 663 -3974 -773 -791 -1899 -987 -2900 -505
-334 161 -342 159 -464 -116 l-64 -145 -266 0 -266 0 168 355 c197 414 194
391 82 528 -1367 1685 -202 4137 1967 4137 164 0 175 10 290 269 l76 171 267
0 267 0 1 -295z"/>
<path d="M2576 5020 c-1543 -325 -2317 -2089 -1507 -3435 123 -205 183 -251
265 -205 59 33 1704 3463 1705 3555 2 127 -141 153 -463 85z m97 -275 c-5 -8
-301 -632 -659 -1385 -766 -1616 -738 -1560 -755 -1560 -7 0 -41 67 -76 148
-379 905 -74 1972 718 2507 240 162 830 384 772 290z"/>
<path d="M4003 4714 c-43 -47 -43 -47 -44 -1075 l-1 -1029 -239 247 -239 246
0 539 c0 590 -6 618 -126 618 -84 0 -110 -44 -473 -812 -473 -997 -481 -928
115 -928 436 0 458 5 481 116 l13 65 210 -211 209 -210 -209 -210 -210 -211
-13 65 c-24 115 -31 116 -658 116 -685 0 -570 74 -870 -559 -291 -615 -291
-587 -6 -740 995 -536 2194 -261 2876 659 764 1031 503 2569 -556 3275 -145
97 -198 105 -260 39z m615 -764 c1167 -1690 -598 -3888 -2433 -3030 l-164 77
61 136 c34 76 117 250 185 387 l123 250 410 0 410 0 10 -167 c14 -232 -5 -223
502 -223 377 0 418 3 461 38 l47 38 5 1456 6 1456 140 -139 c77 -76 184 -202
237 -279z m-1398 -810 l0 -360 -170 0 c-204 0 -201 -25 -38 314 73 152 145
305 160 341 45 103 48 85 48 -295z m740 -1340 l0 -140 -144 0 -145 0 139 140
c76 77 141 140 144 140 4 0 6 -63 6 -140z"/>
</g>
</svg>
